<svg width="20" height="20" viewBox="0 0 20 20" fill="none" xmlns="http://www.w3.org/2000/svg">
<path d="M6.13032 13.476V15.128H12.3463V16.724H6.13032V20H3.30232V16.724H0.446323V15.128H3.30232V0.399999H11.0023C13.5597 0.399999 15.557 0.969332 16.9943 2.108C18.4317 3.228 19.1503 4.83333 19.1503 6.924C19.1503 9.03333 18.4317 10.6573 16.9943 11.796C15.557 12.916 13.5597 13.476 11.0023 13.476H6.13032ZM16.3223 6.952C16.3223 5.62667 15.865 4.60933 14.9503 3.9C14.0357 3.19067 12.7197 2.836 11.0023 2.836H6.13032V11.152H11.0023C12.701 11.152 14.0077 10.788 14.9223 10.06C15.8557 9.31333 16.3223 8.27733 16.3223 6.952Z" fill="#050C33"/>
</svg>
